{"title":"Rick Ross ft Chrisette Michele and Drake - Aston Martin Music [K","uid":5891826,"size":133330651,"categoryP":"video","categoryS":"music_videos","magnet":"?xt=urn:btih:3eb6cd0e38f1354c0aeb19d6ed76a0b643059c12&amp;dn=Rick+Ross+ft+Chrisette+Michele+and+Drake+-+Aston+Martin+Music+%5BK&amp;tr=udp%3A%2F%2Ftracker.openbittorrent.com%3A80&amp;tr=udp%3A%2F%2Fopen.demonii.com%3A1337&amp;tr=udp%3A%2F%2Ftracker.coppersurfer.tk%3A6969&amp;tr=udp%3A%2F%2Fexodus.desync.com%3A6969","seeders":6,"leechers":0,"uploader":"KingPinMan","files":5,"time":1287286006,"description":"[img]http://img543.imageshack.us/img543/7407/rickrossastonmartin.png[/img]\n\n[img]http://img689.imageshack.us/img689/5558/rickrossastonmartin2.png[/img]\n\n[code]General\nComplete name                    : Rick Ross ft Chrisette Michele and Drake - Aston Martin Music [KingPinVideos].mpg\nFormat                           : MPEG-PS\nFile size                        : 127 MiB\nDuration                         : 6mn 13s\nOverall bit rate                 : 2 857 Kbps\nWriting library                  : encoded by TMPGEnc 4.0 XPress Version. 4.7.4.299\n\nVideo\nID                               : 224 (0xE0)\nFormat                           : MPEG Video\nFormat version                   : Version 1\nFormat settings, BVOP            : Yes\nFormat settings, Matrix          : Default\nDuration                         : 6mn 13s\nBit rate mode                    : Constant\nBit rate                         : 2 615 Kbps\nNominal bit rate                 : 2 700 Kbps\nWidth                            : 384 pixels\nHeight                           : 208 pixels\nDisplay aspect ratio             : 16:9\nFrame rate                       : 29.970 fps\nResolution                       : 8 bits\nScan type                        : Progressive\nBits/(Pixel*Frame)               : 1.093\nStream size                      : 116 MiB (92%)\nWriting library                  : TMPGEnc XPress 4.7.4.299\n\nAudio\nID                               : 192 (0xC0)\nFormat                           : MPEG Audio\nFormat version                   : Version 1\nFormat profile                   : Layer 2\nDuration                         : 6mn 13s\nBit rate mode                    : Constant\nBit rate                         : 128 Kbps\nChannel(s)                       : 2 channels\nSampling rate                    : 48.0 KHz\nStream size                      : 5.70 MiB (4%)[/code]","torrent":{"xt":"urn:btih:3eb6cd0e38f1354c0aeb19d6ed76a0b643059c12","amp;dn":"Rick+Ross+ft+Chrisette+Michele+and+Drake+-+Aston+Martin+Music+%5BK","amp;tr":["udp%3A%2F%2Ftracker.openbittorrent.com%3A80","udp%3A%2F%2Fopen.demonii.com%3A1337","udp%3A%2F%2Ftracker.coppersurfer.tk%3A6969","udp%3A%2F%2Fexodus.desync.com%3A6969"],"infoHash":"3eb6cd0e38f1354c0aeb19d6ed76a0b643059c12","infoHashBuffer":{"type":"Buffer","data":[62,182,205,14,56,241,53,76,10,235,25,214,237,118,160,182,67,5,156,18]},"announce":[],"urlList":[]}}